<svg xmlns="http://www.w3.org/2000/svg" xmlns:xlink="http://www.w3.org/1999/xlink" width="500" zoomAndPan="magnify" viewBox="0 0 375 112.499997" height="150" preserveAspectRatio="xMidYMid meet" version="1.0"><defs><g/><clipPath id="8f7cee4fa9"><path d="M 12.03125 12.125 L 100 12.125 L 100 100.230469 L 12.03125 100.230469 Z M 12.03125 12.125 " clip-rule="nonzero"/></clipPath></defs><g clip-path="url(#8f7cee4fa9)"><path fill="#0260ff" d="M 55.96875 100.230469 C 80.230469 100.230469 99.898438 80.503906 99.898438 56.175781 C 99.898438 31.84375 80.230469 12.121094 55.96875 12.121094 C 31.710938 12.121094 12.042969 31.84375 12.042969 56.175781 C 12.042969 80.503906 31.710938 100.230469 55.96875 100.230469 Z M 69.675781 32.644531 C 70.339844 30.265625 68.042969 28.863281 65.941406 30.363281 L 36.628906 51.304688 C 34.351562 52.933594 34.707031 56.175781 37.164062 56.175781 L 44.882812 56.175781 L 44.882812 56.113281 L 59.929688 56.113281 L 47.671875 60.453125 L 42.265625 79.707031 C 41.601562 82.082031 43.898438 83.488281 46 81.988281 L 75.3125 61.042969 C 77.589844 59.417969 77.230469 56.175781 74.773438 56.175781 L 63.070312 56.175781 Z M 69.675781 32.644531 " fill-opacity="1" fill-rule="evenodd"/></g><g fill="#000000" fill-opacity="1"><g transform="translate(108.830408, 79.042541)"><g><path d="M 22.671875 0.671875 C 18.773438 0.671875 15.40625 -0.210938 12.5625 -1.984375 C 9.71875 -3.765625 7.523438 -6.445312 5.984375 -10.03125 C 4.441406 -13.625 3.671875 -18.0625 3.671875 -23.34375 C 3.671875 -28.664062 4.597656 -33.117188 6.453125 -36.703125 C 8.304688 -40.285156 10.875 -42.953125 14.15625 -44.703125 C 17.445312 -46.460938 21.265625 -47.34375 25.609375 -47.34375 C 30.078125 -47.34375 33.882812 -46.515625 37.03125 -44.859375 C 40.1875 -43.203125 42.398438 -40.734375 43.671875 -37.453125 L 36.9375 -33.359375 L 36.140625 -33.390625 C 35.179688 -35.484375 33.832031 -37.007812 32.09375 -37.96875 C 30.363281 -38.925781 28.203125 -39.40625 25.609375 -39.40625 C 21.585938 -39.40625 18.507812 -38.128906 16.375 -35.578125 C 14.25 -33.035156 13.1875 -28.957031 13.1875 -23.34375 C 13.1875 -17.695312 14.179688 -13.597656 16.171875 -11.046875 C 18.160156 -8.492188 21.101562 -7.21875 25 -7.21875 C 28.363281 -7.21875 30.84375 -7.972656 32.4375 -9.484375 C 34.03125 -10.992188 34.828125 -13.25 34.828125 -16.25 L 34.828125 -18.265625 L 23.78125 -18.265625 L 23.78125 -25.765625 L 44 -25.765625 L 44 0 L 35.1875 0 L 35.1875 -6.265625 L 34.515625 -6.359375 C 33.554688 -4.117188 32.101562 -2.382812 30.15625 -1.15625 C 28.207031 0.0625 25.710938 0.671875 22.671875 0.671875 Z M 22.671875 0.671875 "/></g></g></g><g fill="#000000" fill-opacity="1"><g transform="translate(157.517654, 79.042541)"><g><path d="M 16.125 0.671875 C 12.164062 0.671875 9.242188 -0.40625 7.359375 -2.5625 C 5.472656 -4.726562 4.53125 -7.832031 4.53125 -11.875 L 4.53125 -35.21875 L 13.375 -35.21875 L 13.375 -13 C 13.375 -10.84375 13.835938 -9.269531 14.765625 -8.28125 C 15.691406 -7.289062 17.125 -6.796875 19.0625 -6.796875 C 21.507812 -6.796875 23.414062 -7.597656 24.78125 -9.203125 C 26.144531 -10.816406 26.828125 -13.347656 26.828125 -16.796875 L 26.828125 -35.21875 L 35.671875 -35.21875 L 35.671875 0 L 27.171875 0 L 27.171875 -5.171875 L 26.5 -5.328125 C 25.375 -3.304688 23.992188 -1.800781 22.359375 -0.8125 C 20.734375 0.175781 18.65625 0.671875 16.125 0.671875 Z M 16.125 0.671875 "/></g></g></g><g fill="#000000" fill-opacity="1"><g transform="translate(198.255303, 79.042541)"><g><path d="M 5.078125 0 L 5.078125 -35.21875 L 13.671875 -35.21875 L 13.671875 -29.984375 L 14.34375 -29.859375 C 15.1875 -31.816406 16.300781 -33.25 17.6875 -34.15625 C 19.070312 -35.070312 20.753906 -35.53125 22.734375 -35.53125 C 24.734375 -35.53125 26.253906 -35.191406 27.296875 -34.515625 L 25.796875 -26.890625 L 25.125 -26.75 C 24.550781 -26.988281 24 -27.160156 23.46875 -27.265625 C 22.9375 -27.367188 22.285156 -27.421875 21.515625 -27.421875 C 19.046875 -27.421875 17.160156 -26.550781 15.859375 -24.8125 C 14.566406 -23.082031 13.921875 -20.300781 13.921875 -16.46875 L 13.921875 0 Z M 5.078125 0 "/></g></g></g><g fill="#000000" fill-opacity="1"><g transform="translate(225.871351, 79.042541)"><g><path d="M 16.125 0.671875 C 12.164062 0.671875 9.242188 -0.40625 7.359375 -2.5625 C 5.472656 -4.726562 4.53125 -7.832031 4.53125 -11.875 L 4.53125 -35.21875 L 13.375 -35.21875 L 13.375 -13 C 13.375 -10.84375 13.835938 -9.269531 14.765625 -8.28125 C 15.691406 -7.289062 17.125 -6.796875 19.0625 -6.796875 C 21.507812 -6.796875 23.414062 -7.597656 24.78125 -9.203125 C 26.144531 -10.816406 26.828125 -13.347656 26.828125 -16.796875 L 26.828125 -35.21875 L 35.671875 -35.21875 L 35.671875 0 L 27.171875 0 L 27.171875 -5.171875 L 26.5 -5.328125 C 25.375 -3.304688 23.992188 -1.800781 22.359375 -0.8125 C 20.734375 0.175781 18.65625 0.671875 16.125 0.671875 Z M 16.125 0.671875 "/></g></g></g><g fill="#000000" fill-opacity="1"><g transform="translate(266.609, 79.042541)"><g><path d="M 5.078125 0 L 5.078125 -49.359375 L 13.921875 -49.359375 L 13.921875 -21.96875 L 14.78125 -21.96875 L 24.96875 -35.21875 L 33.9375 -35.21875 L 33.9375 -34.484375 L 21.96875 -19.03125 L 35.28125 -0.796875 L 35.28125 0 L 25.953125 0 L 14.78125 -14.84375 L 13.921875 -14.84375 L 13.921875 0 Z M 5.078125 0 "/></g></g></g><g fill="#000000" fill-opacity="1"><g transform="translate(301.951155, 79.042541)"><g><path d="M 16.125 0.671875 C 12.164062 0.671875 9.242188 -0.40625 7.359375 -2.5625 C 5.472656 -4.726562 4.53125 -7.832031 4.53125 -11.875 L 4.53125 -35.21875 L 13.375 -35.21875 L 13.375 -13 C 13.375 -10.84375 13.835938 -9.269531 14.765625 -8.28125 C 15.691406 -7.289062 17.125 -6.796875 19.0625 -6.796875 C 21.507812 -6.796875 23.414062 -7.597656 24.78125 -9.203125 C 26.144531 -10.816406 26.828125 -13.347656 26.828125 -16.796875 L 26.828125 -35.21875 L 35.671875 -35.21875 L 35.671875 0 L 27.171875 0 L 27.171875 -5.171875 L 26.5 -5.328125 C 25.375 -3.304688 23.992188 -1.800781 22.359375 -0.8125 C 20.734375 0.175781 18.65625 0.671875 16.125 0.671875 Z M 16.125 0.671875 "/></g></g></g><g fill="#000000" fill-opacity="1"><g transform="translate(342.688803, 79.042541)"><g><path d="M 14.625 0.671875 C 11.445312 0.671875 9.023438 -0.179688 7.359375 -1.890625 C 5.691406 -3.609375 4.859375 -6.210938 4.859375 -9.703125 L 4.859375 -49.359375 L 13.703125 -49.359375 L 13.703125 -10.0625 C 13.703125 -7.90625 14.59375 -6.828125 16.375 -6.828125 C 16.882812 -6.828125 17.429688 -6.914062 18.015625 -7.09375 L 18.453125 -6.953125 L 19.25 -0.15625 C 18.757812 0.09375 18.109375 0.289062 17.296875 0.4375 C 16.492188 0.59375 15.601562 0.671875 14.625 0.671875 Z M 14.625 0.671875 "/></g></g></g></svg>